<?xml version="1.0" encoding="UTF-8"?>
<!DOCTYPE svg PUBLIC "-//W3C//DTD SVG 1.1//EN" "http://www.w3.org/Graphics/SVG/1.1/DTD/svg11.dtd">
<!-- Creator: CorelDRAW 2019 (64-Bit) -->
<svg xmlns="http://www.w3.org/2000/svg" xml:space="preserve" width="26px" height="26px" version="1.1" style="shape-rendering:geometricPrecision; text-rendering:geometricPrecision; image-rendering:optimizeQuality; fill-rule:evenodd; clip-rule:evenodd"
viewBox="0 0 2600 2600"
 xmlns:xlink="http://www.w3.org/1999/xlink"
 xmlns:xodm="http://www.corel.com/coreldraw/odm/2003">
 <defs>
  <style type="text/css">
   <![CDATA[
    .fil0 {fill:#303030}
    .fil2 {fill:white;fill-rule:nonzero}
    .fil1 {fill:white;fill-rule:nonzero;fill-opacity:0.501961}
   ]]>
  </style>
 </defs>
 <g id="Layer_x0020_1">
  <metadata id="CorelCorpID_0Corel-Layer"/>
  <rect class="fil0" width="2600" height="2600"/>
  <path class="fil1" d="M1675 1643c-28,-18 -37,-55 -19,-83 18,-28 55,-36 83,-18 76,48 144,109 200,180 56,70 101,149 131,235 8,23 2,48 -15,64l-40 39c-199,188 -457,283 -715,283 -258,0 -516,-95 -715,-283l-42 -42c-16,-17 -20,-41 -13,-61 30,-86 75,-165 131,-235 56,-70 123,-131 200,-180 28,-18 65,-9 83,18 17,28 9,65 -19,83 -65,41 -123,93 -171,154 -39,50 -73,106 -98,166l10 10c177,166 405,250 634,250 228,0 457,-84 633,-250l11 -10c-25,-60 -59,-116 -99,-166 -47,-60 -105,-112 -170,-154z"/>
  <path class="fil2" d="M870 1001c-16,-167 80,-278 214,-335 66,-28 141,-42 216,-42 74,0 150,14 216,42 134,57 230,168 214,335 -10,106 -71,257 -157,369 -74,96 -169,167 -273,167 -104,0 -199,-71 -273,-167 -86,-113 -146,-263 -157,-369zm260 -225c-88,37 -151,109 -141,213 9,87 60,212 133,308 53,69 116,120 178,120 62,0 125,-51 178,-120 73,-96 124,-221 133,-308 10,-104 -53,-176 -141,-213 -51,-21 -110,-32 -170,-32 -60,0 -119,11 -170,32z"/>
 </g>
</svg>
